<svg width="107" height="31" viewBox="0 0 107 31" fill="none" xmlns="http://www.w3.org/2000/svg">
<path fill-rule="evenodd" clip-rule="evenodd" d="M73.5686 22.7058C71.9721 24.4265 69.9218 25.3004 67.4757 25.3004C65.0287 25.3004 62.9784 24.4265 61.3828 22.7058C59.8589 21.0668 58.9832 18.446 58.9832 15.518C58.9832 12.6599 59.8686 10.0751 61.409 8.42441C63.021 6.70375 65.0616 5.82592 67.4738 5.81912C69.8899 5.82592 71.9305 6.70375 73.5415 8.42441C75.0839 10.0751 75.9673 12.6599 75.9673 15.518C75.9673 18.446 75.0926 21.0668 73.5686 22.7058ZM52.1462 15.518C52.1462 15.6502 52.152 15.7804 52.1559 15.9107C49.7079 13.6719 46.1685 12.8388 44.0059 12.4043C40.0049 11.5566 36.9483 10.7808 36.9483 7.9189C36.9483 5.89981 38.748 4.43093 42.2052 4.68271C45.3644 4.9131 46.6948 6.85346 47.0596 8.72576C47.1119 9.03295 47.2531 9.25654 47.6015 9.25946L53.2832 9.30806C53.3102 9.30806 53.3335 9.30515 53.3577 9.3032C52.5565 11.1804 52.1462 13.2704 52.1462 15.518ZM42.4829 26.0188C39.735 26.0188 36.7074 25.038 36.0098 21.2428C35.9507 20.8802 35.7805 20.7305 35.5037 20.7227L30.0107 20.6488V10.8936C30.7325 13.7526 33.1235 15.7318 38.2942 16.9013C41.7553 17.7334 47.7592 18.2623 47.7592 21.8319C47.7592 24.3205 45.9353 26.0772 42.4829 26.0188ZM15.1234 25.3043C10.6919 25.3043 6.63185 21.7998 6.63185 15.5219C6.63185 10.5961 9.67588 5.82301 15.1524 5.82301C17.525 5.82301 23.5405 6.63959 23.5405 15.5219C23.5405 24.4275 17.2598 25.3043 15.1224 25.3043H15.1234ZM82.6408 13.1256C83.9015 14.8151 86.1773 16.0662 89.8745 16.9023C93.3345 17.7344 99.3394 18.2632 99.3394 21.8329C99.3394 24.3215 97.5145 26.0781 94.0631 26.0198C91.3161 26.0198 88.2866 25.0389 87.59 21.2438C87.5319 20.8812 87.3616 20.7315 87.0839 20.7237L81.9944 20.6556C82.5314 19.0643 82.8052 17.3407 82.8052 15.5189C82.805 14.7183 82.75 13.9187 82.6408 13.1256ZM93.6877 30.9873C99.7825 30.9873 106.966 28.7077 106.404 21.3138C105.783 14.75 98.9843 13.0877 95.5861 12.4052C91.5842 11.5576 88.5276 10.7818 88.5276 7.91987C88.5276 5.90078 90.3273 4.4319 93.7854 4.68368C96.9446 4.91407 98.275 6.85443 98.6398 8.72674C98.6921 9.03393 98.8343 9.25751 99.1817 9.26043L104.863 9.30904C105.296 9.31195 105.43 9.08642 105.376 8.77728C104.263 1.93549 98.574 0 93.3384 0C88.1105 0 81.8115 1.47568 81.3645 8.00931C81.349 8.26206 81.3432 8.51092 81.3432 8.75493C80.5111 7.01677 79.3113 5.42055 77.7651 4.00708C74.9107 1.42124 71.3519 0.0359685 67.4709 0.00194424H67.3422C65.4883 0.00194424 63.6741 0.345103 61.9489 1.02559C60.1953 1.72245 58.5818 2.73258 57.1864 4.00708C55.7224 5.34472 54.5662 6.84568 53.7399 8.47593C52.5091 1.88203 46.9145 0 41.7572 0C36.958 0 31.255 1.24723 30.0107 6.51321V1.28612C30.0105 1.15222 29.9573 1.02389 29.863 0.9293C29.7687 0.83471 29.6409 0.781585 29.5076 0.781586H24.1568C24.0235 0.781843 23.8958 0.835215 23.8017 0.929987C23.7075 1.02476 23.6546 1.15319 23.6546 1.28709V2.69666C23.6546 2.93386 23.4969 3.01649 23.3044 2.87845C21.4011 1.49123 18.5854 0.00291636 15.1969 0.00291636C13.2927 0.00291636 11.4746 0.33927 9.79199 1.00226C8.10839 1.66719 6.508 2.67917 5.0392 4.01097C3.36721 5.53915 2.09386 7.28119 1.25883 9.18849C0.423804 11.0958 0 13.2267 0 15.5209C0 17.6625 0.375424 19.6709 1.11466 21.4858C1.8539 23.3008 2.9792 24.9796 4.46058 26.4767C5.94099 27.9738 7.5975 29.1111 9.38077 29.8597C11.164 30.6053 13.1292 30.9835 15.225 30.9835C18.8264 30.9835 21.5288 29.4426 23.2995 28.0418C23.495 27.8921 23.6546 27.9728 23.6546 28.2178V29.6983C23.6546 29.9763 23.881 30.2038 24.1578 30.2038H29.5085C29.6417 30.2033 29.7693 30.1498 29.8634 30.0551C29.9575 29.9604 30.0105 29.8321 30.0107 29.6983V24.7113C32.5332 30.6704 38.9609 30.9864 42.1075 30.9864C47.3673 30.9864 53.4331 29.2852 54.6368 24.0668C55.2155 24.9305 55.8755 25.7362 56.6078 26.4728C59.4757 29.3727 63.2338 30.9319 67.4806 30.9786H67.6547C69.6712 30.9786 71.617 30.5897 73.438 29.8208C75.2765 29.0398 76.9435 27.9021 78.3437 26.4728C79.3911 25.4237 80.2856 24.2311 81.0007 22.9304C82.9078 30.6131 90.2537 30.9864 93.6877 30.9864V30.9873Z" fill="#0B0B0A"/>
</svg>
