<svg width="78" height="78" viewBox="0 0 78 78" fill="none" xmlns="http://www.w3.org/2000/svg">
<mask id="mask0_6001_2" style="mask-type:luminance" maskUnits="userSpaceOnUse" x="0" y="0" width="78" height="78">
<path fill-rule="evenodd" clip-rule="evenodd" d="M0.66748 0.667435H77.3447V77.3379H0.66748V0.667435Z" fill="white"/>
</mask>
<g mask="url(#mask0_6001_2)">
<path fill-rule="evenodd" clip-rule="evenodd" d="M34.9556 69.9561C37.2173 72.1641 40.8589 72.1373 43.1053 69.8794L45.8729 67.1194C48.0196 64.9766 50.9866 63.7537 54.0111 63.7537H57.9594C61.1564 63.7537 63.7554 61.1548 63.7554 57.9616V54.0171C63.7554 50.9466 64.9438 48.0601 67.1134 45.8866L69.8734 43.1227C70.9966 41.9957 71.5984 40.5353 71.5946 38.9866C71.5908 37.4418 70.9813 35.9889 69.8811 34.8926L67.1173 32.1249C64.9438 29.9361 63.7554 27.0534 63.7554 23.9829V20.0461C63.7554 16.8491 61.1564 14.2501 57.9594 14.2501H54.0188C50.9483 14.2501 48.0618 13.0579 45.8883 10.8997L43.1206 8.12825C40.8168 5.84741 37.1406 5.85891 34.8904 8.12441L32.1343 10.8882C29.9339 13.0617 27.0474 14.2501 23.9884 14.2501H20.0439C16.8508 14.2539 14.2517 16.8529 14.2517 20.0461V23.9752C14.2517 27.0457 13.0596 29.9322 10.8976 32.1096L8.17592 34.8351C8.14908 34.8657 8.12225 34.8887 8.09542 34.9156C5.84525 37.1811 5.85675 40.8572 8.12225 43.1074L10.8899 45.8751C13.0596 48.0524 14.2517 50.9389 14.2517 54.0094V57.9616C14.2517 61.1548 16.8469 63.7537 20.0439 63.7537H23.9807C27.0551 63.7576 29.9416 64.9497 32.1151 67.1156L34.8789 69.8717C34.9019 69.8986 34.9288 69.9254 34.9556 69.9561V69.9561ZM38.9959 77.3391C36.0557 77.3391 33.1156 76.2274 30.8654 73.9964C30.8347 73.9657 30.8041 73.9351 30.7734 73.9006L28.0517 71.1827C26.9669 70.1056 25.5179 69.5076 23.9769 69.5037H20.0439C13.6767 69.5037 8.50175 64.3249 8.50175 57.9616V54.0094C8.50175 52.4684 7.89992 51.0232 6.81892 49.9346L4.06275 47.1822C-0.414584 42.7279 -0.468251 35.4752 3.92858 30.9519C3.96308 30.9174 3.99758 30.8829 4.03208 30.8484L6.82275 28.0501C7.89992 26.9652 8.50175 25.5124 8.50175 23.9752V20.0461C8.50175 13.6827 13.6767 8.50391 20.0401 8.50008H23.9884C25.5256 8.50008 26.9746 7.89825 28.0747 6.81341L30.8156 4.06491C35.2967 -0.446919 42.6222 -0.469919 47.1417 4.02275L49.9439 6.82491C51.0287 7.90208 52.4777 8.50008 54.0187 8.50008H57.9594C64.3266 8.50008 69.5054 13.6789 69.5054 20.0461V23.9829C69.5054 25.5201 70.1034 26.9729 71.1882 28.0654L73.9406 30.8216C76.1217 32.9874 77.3331 35.8816 77.3446 38.9674C77.3561 42.0532 76.1639 44.9551 73.9904 47.1439L71.1806 49.9461C70.1034 51.0309 69.5054 52.4761 69.5054 54.0171V57.9616C69.5054 64.3249 64.3266 69.5037 57.9632 69.5037H54.0111C52.4931 69.5037 51.0096 70.1171 49.9324 71.1866L47.1801 73.9389C44.9299 76.2044 41.9629 77.3391 38.9959 77.3391V77.3391Z" fill="#E9331D"/>
</g>
<path fill-rule="evenodd" clip-rule="evenodd" d="M29.1494 51.7324C28.4134 51.7324 27.6774 51.4526 27.1178 50.8891C25.9946 49.7659 25.9946 47.9489 27.1178 46.8258L46.8211 27.1186C47.9443 25.9954 49.7651 25.9954 50.8883 27.1186C52.0114 28.2418 52.0114 30.0626 50.8883 31.1858L31.1811 50.8891C30.6214 51.4526 29.8854 51.7324 29.1494 51.7324" fill="#E9331D"/>
<path fill-rule="evenodd" clip-rule="evenodd" d="M48.5966 52.4136C46.4768 52.4136 44.7441 50.7001 44.7441 48.5803C44.7441 46.4604 46.4423 44.7469 48.5621 44.7469H48.5966C50.7165 44.7469 52.43 46.4604 52.43 48.5803C52.43 50.7001 50.7165 52.4136 48.5966 52.4136" fill="#E9331D"/>
<path fill-rule="evenodd" clip-rule="evenodd" d="M29.4301 33.2469C27.3103 33.2469 25.5776 31.5334 25.5776 29.4136C25.5776 27.2938 27.2758 25.5803 29.3956 25.5803H29.4301C31.55 25.5803 33.2635 27.2938 33.2635 29.4136C33.2635 31.5334 31.55 33.2469 29.4301 33.2469" fill="#E9331D"/>
</svg>
