<svg width="84" height="68" viewBox="0 0 84 68" fill="none" xmlns="http://www.w3.org/2000/svg">
<path fill-rule="evenodd" clip-rule="evenodd" d="M49.1318 16.3218C47.5448 16.3218 46.2568 15.0338 46.2568 13.4468V4.16629C46.2568 2.57929 47.5448 1.29129 49.1318 1.29129C50.7188 1.29129 52.0068 2.57929 52.0068 4.16629V13.4468C52.0068 15.0338 50.7188 16.3218 49.1318 16.3218Z" fill="#E9331D"/>
<path fill-rule="evenodd" clip-rule="evenodd" d="M49.1318 66.5894C47.5448 66.5894 46.2568 65.3014 46.2568 63.7144V55.9596C46.2568 54.3688 47.5448 53.0846 49.1318 53.0846C50.7188 53.0846 52.0068 54.3688 52.0068 55.9596V63.7144C52.0068 65.3014 50.7188 66.5894 49.1318 66.5894Z" fill="#E9331D"/>
<path fill-rule="evenodd" clip-rule="evenodd" d="M49.1318 45.6633C47.5448 45.6633 46.2568 44.3753 46.2568 42.7883V24.3078C46.2568 22.7208 47.5448 21.4328 49.1318 21.4328C50.7188 21.4328 52.0068 22.7208 52.0068 24.3078V42.7883C52.0068 44.3753 50.7188 45.6633 49.1318 45.6633Z" fill="#E9331D"/>
<mask id="mask0_6_1997" style="mask-type:luminance" maskUnits="userSpaceOnUse" x="0" y="0" width="84" height="68">
<path fill-rule="evenodd" clip-rule="evenodd" d="M0.833496 0.333344L83.2502 0.333344V67.4155H0.833496L0.833496 0.333344Z" fill="white"/>
</mask>
<g mask="url(#mask0_6_1997)">
<path fill-rule="evenodd" clip-rule="evenodd" d="M6.5835 44.6225V52.0554C6.5835 57.353 10.965 61.6655 16.3508 61.6655L67.7328 61.6655C73.1187 61.6655 77.5002 57.353 77.5002 52.0554V44.6225C72.7047 43.3614 69.155 39.022 69.155 33.8777C69.155 28.7295 72.7008 24.394 77.5002 23.1329L77.4963 15.6924C77.4963 10.3947 73.1148 6.08218 67.729 6.08218L16.3547 6.08218C10.9688 6.08218 6.58733 10.3947 6.58733 15.6924L6.5835 23.428C11.4403 24.6202 14.9287 28.7832 14.9287 33.8777C14.9287 39.022 11.379 43.3614 6.5835 44.6225ZM67.7328 67.4155H16.3508C7.79483 67.4155 0.833496 60.5232 0.833496 52.0554L0.833496 42.1194C0.833496 40.5324 2.1215 39.2444 3.7085 39.2444C6.72533 39.2444 9.17866 36.837 9.17866 33.8777C9.17866 31.0027 6.825 28.833 3.7085 28.833C2.94566 28.833 2.2135 28.5302 1.67683 27.9897C1.13633 27.453 0.833496 26.717 0.833496 25.958L0.837329 15.6924C0.837329 7.22452 7.79866 0.332184 16.3547 0.332184L67.729 0.332184C76.285 0.332184 83.2463 7.22452 83.2463 15.6924L83.2502 25.636C83.2502 26.395 82.9473 27.131 82.4068 27.6677C81.8702 28.2082 81.138 28.511 80.3752 28.511C77.3583 28.511 74.905 30.9184 74.905 33.8777C74.905 36.837 77.3583 39.2444 80.3752 39.2444C81.9622 39.2444 83.2502 40.5324 83.2502 42.1194V52.0554C83.2502 60.5232 76.2888 67.4155 67.7328 67.4155Z" fill="#E9331D"/>
</g>
</svg>
