<svg width="32" height="26" viewBox="0 0 32 26" fill="none" xmlns="http://www.w3.org/2000/svg">
<g clip-path="url(#clip0_6_2382)">
<path fill-rule="evenodd" clip-rule="evenodd" d="M19.041 6.78464C18.4382 6.78464 17.949 6.30346 17.949 5.71058V2.24355C17.949 1.65067 18.4382 1.16949 19.041 1.16949C19.6438 1.16949 20.133 1.65067 20.133 2.24355V5.71058C20.133 6.30346 19.6438 6.78464 19.041 6.78464Z" fill="#E9331D"/>
<path fill-rule="evenodd" clip-rule="evenodd" d="M19.041 25.5637C18.4382 25.5637 17.949 25.0825 17.949 24.4896V21.5925C17.949 20.9982 18.4382 20.5185 19.041 20.5185C19.6438 20.5185 20.133 20.9982 20.133 21.5925V24.4896C20.133 25.0825 19.6438 25.5637 19.041 25.5637Z" fill="#E9331D"/>
<path fill-rule="evenodd" clip-rule="evenodd" d="M19.041 17.746C18.4382 17.746 17.949 17.2648 17.949 16.6719V9.7679C17.949 9.17502 18.4382 8.69385 19.041 8.69385C19.6438 8.69385 20.133 9.17502 20.133 9.7679V16.6719C20.133 17.2648 19.6438 17.746 19.041 17.746Z" fill="#E9331D"/>
<mask id="mask0_6_2382" style="mask-type:luminance" maskUnits="userSpaceOnUse" x="0" y="0" width="32" height="26">
<path fill-rule="evenodd" clip-rule="evenodd" d="M0.695557 0.811523H31.9999V25.8723H0.695557V0.811523Z" fill="white"/>
</mask>
<g mask="url(#mask0_6_2382)">
<path fill-rule="evenodd" clip-rule="evenodd" d="M2.87958 17.3572V20.134C2.87958 22.1131 4.54381 23.7242 6.58951 23.7242H26.106C28.1517 23.7242 29.8159 22.1131 29.8159 20.134V17.3572C27.9944 16.8861 26.6461 15.265 26.6461 13.3431C26.6461 11.4199 27.9929 9.80019 29.8159 9.32904L29.8144 6.5494C29.8144 4.57028 28.1502 2.9592 26.1045 2.9592H6.59097C4.54526 2.9592 2.88104 4.57028 2.88104 6.5494L2.87958 9.43931C4.72435 9.88468 6.04933 11.4399 6.04933 13.3431C6.04933 15.265 4.70106 16.8861 2.87958 17.3572ZM26.106 25.8723H6.58951C3.33968 25.8723 0.695557 23.2974 0.695557 20.134V16.4221C0.695557 15.8292 1.18478 15.348 1.78757 15.348C2.93345 15.348 3.8653 14.4487 3.8653 13.3431C3.8653 12.2691 2.97131 11.4585 1.78757 11.4585C1.49782 11.4585 1.21972 11.3454 1.01588 11.1435C0.810582 10.943 0.695557 10.668 0.695557 10.3845L0.697013 6.54939C0.697013 3.38596 3.34114 0.811096 6.59097 0.811096H26.1045C29.3543 0.811096 31.9985 3.38596 31.9985 6.54939L31.9999 10.2642C31.9999 10.5477 31.8849 10.8227 31.6796 11.0232C31.4757 11.2251 31.1976 11.3382 30.9079 11.3382C29.762 11.3382 28.8302 12.2376 28.8302 13.3431C28.8302 14.4487 29.762 15.348 30.9079 15.348C31.5107 15.348 31.9999 15.8292 31.9999 16.4221V20.134C31.9999 23.2974 29.3558 25.8723 26.106 25.8723Z" fill="#E9331D"/>
</g>
</g>
<defs>
<clipPath id="clip0_6_2382">
<rect width="32" height="26" fill="white"/>
</clipPath>
</defs>
</svg>
