<?xml version="1.0" encoding="utf-8"?><svg viewBox="0 0 502.66 502.66" xmlns="http://www.w3.org/2000/svg" xmlns:xlink="http://www.w3.org/1999/xlink"><style>:root>svg{display:none}:root>svg:target{display:block}</style><svg viewBox="0 0 78 78" id="discount" xmlns="http://www.w3.org/2000/svg"><mask id="aa" maskUnits="userSpaceOnUse" x="0" y="0" width="78" height="78"><path fill-rule="evenodd" clip-rule="evenodd" d="M.667.667h76.678v76.67H.667V.668z"/></mask><g mask="url(#aa)"><path fill-rule="evenodd" clip-rule="evenodd" d="M34.956 69.956c2.261 2.208 5.903 2.181 8.15-.077l2.767-2.76a11.599 11.599 0 018.138-3.365h3.948a5.8 5.8 0 005.796-5.792v-3.945c0-3.07 1.189-5.957 3.358-8.13l2.76-2.764a5.79 5.79 0 001.722-4.136 5.765 5.765 0 00-1.714-4.094l-2.764-2.768a11.467 11.467 0 01-3.362-8.142v-3.937a5.801 5.801 0 00-5.796-5.796h-3.94c-3.07 0-5.957-1.192-8.13-3.35L43.12 8.128c-2.304-2.28-5.98-2.27-8.23-.004l-2.757 2.764c-2.2 2.174-5.087 3.362-8.146 3.362h-3.944a5.805 5.805 0 00-5.792 5.796v3.93a11.47 11.47 0 01-3.354 8.134l-2.722 2.725c-.027.03-.054.054-.08.08a5.8 5.8 0 00.026 8.192l2.768 2.768a11.445 11.445 0 013.362 8.134v3.953a5.797 5.797 0 005.792 5.792h3.937a11.465 11.465 0 018.134 3.362l2.764 2.756c.023.027.05.053.077.084zm4.04 7.383a11.508 11.508 0 01-8.223-3.438l-2.721-2.718a5.77 5.77 0 00-4.075-1.68h-3.933c-6.367 0-11.542-5.178-11.542-11.541v-3.953a5.748 5.748 0 00-1.683-4.074l-2.756-2.753c-4.478-4.454-4.531-11.707-.134-16.23l.103-.104 2.79-2.798a5.761 5.761 0 001.68-4.075v-3.929c0-6.363 5.175-11.542 11.538-11.546h3.948a5.79 5.79 0 004.087-1.687l2.74-2.748C35.298-.447 42.623-.47 47.143 4.023l2.802 2.802A5.75 5.75 0 0054.019 8.5h3.94c6.368 0 11.546 5.179 11.546 11.546v3.937c0 1.537.598 2.99 1.683 4.082l2.753 2.757a11.467 11.467 0 013.404 8.145 11.466 11.466 0 01-3.355 8.177l-2.81 2.802a5.742 5.742 0 00-1.675 4.071v3.945c0 6.363-5.178 11.542-11.542 11.542h-3.952a5.827 5.827 0 00-4.079 1.683l-2.752 2.752a11.5 11.5 0 01-8.184 3.4z"/></g><path fill-rule="evenodd" clip-rule="evenodd" d="M29.15 51.732c-.737 0-1.473-.28-2.032-.843a2.871 2.871 0 010-4.063L46.82 27.119a2.876 2.876 0 114.067 4.067L31.181 50.889a2.852 2.852 0 01-2.032.843m19.448.682c-2.12 0-3.853-1.714-3.853-3.834a3.817 3.817 0 013.818-3.833h.035a3.83 3.83 0 013.833 3.833 3.83 3.83 0 01-3.833 3.834M29.43 33.247c-2.12 0-3.852-1.714-3.852-3.833a3.817 3.817 0 013.818-3.834h.034a3.83 3.83 0 013.834 3.834 3.83 3.83 0 01-3.834 3.833"/></svg><svg viewBox="0 0 502.664 502.664" id="icon" xmlns="http://www.w3.org/2000/svg"><path d="M153.821 358.226L0 274.337v-46.463l153.821-83.414v54.574L46.636 250.523l107.185 53.431v54.272zm26.273 29.358L282.103 115.08h32.227L212.084 387.584h-31.99zm168.749-29.358v-54.272l107.164-52.999-107.164-52.59v-53.927l153.821 83.522v46.183l-153.821 84.083z"/></svg><svg viewBox="0 0 84 68" id="ticket" xmlns="http://www.w3.org/2000/svg"><path fill-rule="evenodd" clip-rule="evenodd" d="M49.132 16.322a2.876 2.876 0 01-2.875-2.875v-9.28a2.876 2.876 0 015.75 0v9.28a2.876 2.876 0 01-2.875 2.875zm0 50.268a2.876 2.876 0 01-2.875-2.876V55.96a2.874 2.874 0 012.875-2.875 2.874 2.874 0 012.875 2.875v7.754a2.876 2.876 0 01-2.875 2.875zm0-20.927a2.876 2.876 0 01-2.875-2.875v-18.48a2.876 2.876 0 015.75 0v18.48a2.876 2.876 0 01-2.875 2.875z"/><mask id="ca" maskUnits="userSpaceOnUse" x="0" y="0" width="84" height="68"><path fill-rule="evenodd" clip-rule="evenodd" d="M.833.333H83.25v67.082H.833V.334z"/></mask><g mask="url(#ca)"><path fill-rule="evenodd" clip-rule="evenodd" d="M6.583 44.623v7.432c0 5.298 4.382 9.61 9.768 9.61h51.382c5.386 0 9.767-4.312 9.767-9.61v-7.432c-4.795-1.262-8.345-5.601-8.345-10.745 0-5.148 3.546-9.484 8.345-10.745l-.004-7.44c0-5.298-4.381-9.61-9.767-9.61H16.355c-5.386 0-9.768 4.312-9.768 9.61l-.003 7.735c4.856 1.192 8.345 5.355 8.345 10.45 0 5.144-3.55 9.483-8.345 10.745zm61.15 22.792H16.35c-8.556 0-15.518-6.892-15.518-15.36V42.12a2.876 2.876 0 012.875-2.875c3.017 0 5.47-2.407 5.47-5.366 0-2.875-2.353-5.045-5.47-5.045a2.863 2.863 0 01-2.031-.843 2.87 2.87 0 01-.844-2.032l.004-10.266C.837 7.225 7.8.332 16.355.332h51.374c8.556 0 15.517 6.893 15.517 15.36l.004 9.944a2.87 2.87 0 01-.843 2.032 2.863 2.863 0 01-2.032.843c-3.017 0-5.47 2.407-5.47 5.367 0 2.959 2.453 5.366 5.47 5.366a2.876 2.876 0 012.875 2.875v9.936c0 8.468-6.961 15.36-15.517 15.36z"/></g></svg></svg>