<svg width="29" height="28" viewBox="0 0 29 28" fill="none" xmlns="http://www.w3.org/2000/svg">
<path fill-rule="evenodd" clip-rule="evenodd" d="M8.21483 2.10059C4.54633 2.10059 2.17558 4.52679 2.17558 8.28299V19.7182C2.17558 23.4744 4.54633 25.9006 8.21483 25.9006H20.7834C24.4534 25.9006 26.8256 23.4744 26.8256 19.7182V8.28299C26.8256 4.52679 24.4534 2.10059 20.7849 2.10059H8.21483ZM20.7829 28H8.21425C3.3002 28 0 24.6708 0 19.7176V8.2824C0 3.3292 3.3002 0 8.21425 0H20.7843C25.6984 0 29 3.3292 29 8.2824V19.7176C29 24.6708 25.6984 28 20.7829 28Z" fill="#E9331D"/>
<path fill-rule="evenodd" clip-rule="evenodd" d="M12.7797 18.371C12.5027 18.371 12.2229 18.2688 12.0112 18.063L8.56888 14.7408C8.14403 14.3306 8.14403 13.667 8.56888 13.2568C8.99373 12.8466 9.68103 12.8466 10.1059 13.2568L12.7797 15.8356L18.8929 9.9346C19.3177 9.5244 20.005 9.5244 20.4299 9.9346C20.8547 10.3448 20.8547 11.0084 20.4299 11.4186L13.5482 18.063C13.3365 18.2688 13.0581 18.371 12.7797 18.371Z" fill="#E9331D"/>
</svg>
